<svg width="70" height="70" viewBox="0 0 70 70" fill="none" xmlns="http://www.w3.org/2000/svg">
<g id="Frame" clip-path="url(#clip0_496_4981)">
<g id="Group">
<path id="Vector" d="M41.5625 0H8.02083C3.5875 0 0 3.5875 0 8.02083V53.2292C0 57.6625 3.5875 61.25 8.02083 61.25H31.7625C29.1184 57.6589 27.6972 53.3137 27.7083 48.8542C27.7083 37.1875 37.1875 27.7083 48.8542 27.7083C49.0875 27.7083 49.35 27.7083 49.5833 27.7375V8.02083C49.5833 3.5875 45.9958 0 41.5625 0ZM11.6667 11.6667H23.3333C24.9375 11.6667 26.25 12.9792 26.25 14.5833C26.25 16.1875 24.9375 17.5 23.3333 17.5H11.6667C10.0625 17.5 8.75 16.1875 8.75 14.5833C8.75 12.9792 10.0625 11.6667 11.6667 11.6667ZM26.25 40.8333H11.6667C10.0625 40.8333 8.75 39.5208 8.75 37.9167C8.75 36.3125 10.0625 35 11.6667 35H26.25C27.8542 35 29.1667 36.3125 29.1667 37.9167C29.1667 39.5208 27.8542 40.8333 26.25 40.8333ZM37.9167 29.1667H11.6667C10.0625 29.1667 8.75 27.8542 8.75 26.25C8.75 24.6458 10.0625 23.3333 11.6667 23.3333H37.9167C39.5208 23.3333 40.8333 24.6458 40.8333 26.25C40.8333 27.8542 39.5208 29.1667 37.9167 29.1667Z" fill="#211142"/>
<path id="Vector_2" d="M48.8542 64.167C40.4104 64.167 33.5417 57.2982 33.5417 48.8545C33.5417 40.4107 40.4104 33.542 48.8542 33.542C57.2979 33.542 64.1667 40.4107 64.1667 48.8545C64.1667 57.2982 57.2979 64.167 48.8542 64.167ZM48.8542 39.3753C43.6275 39.3753 39.375 43.6278 39.375 48.8545C39.375 54.0812 43.6275 58.3337 48.8542 58.3337C54.0808 58.3337 58.3333 54.0812 58.3333 48.8545C58.3333 43.6278 54.0808 39.3753 48.8542 39.3753Z" fill="#211142"/>
<path id="Vector_3" d="M67.0833 69.9996C66.7003 70 66.3209 69.9247 65.967 69.778C65.6132 69.6313 65.2917 69.4162 65.0213 69.145L55.5421 59.6658C55.2713 59.395 55.0565 59.0735 54.9099 58.7197C54.7634 58.3659 54.6879 57.9867 54.6879 57.6037C54.6879 57.2208 54.7634 56.8415 54.9099 56.4877C55.0565 56.1339 55.2713 55.8124 55.5421 55.5416C55.8129 55.2708 56.1344 55.056 56.4882 54.9095C56.842 54.7629 57.2212 54.6875 57.6042 54.6875C57.9871 54.6875 58.3663 54.7629 58.7202 54.9095C59.074 55.056 59.3955 55.2708 59.6663 55.5416L69.1454 65.0208C69.5546 65.4282 69.8336 65.9479 69.9469 66.5141C70.0602 67.0803 70.0027 67.6673 69.7818 68.2008C69.5608 68.7342 69.1864 69.19 68.7059 69.5103C68.2255 69.8305 67.6607 70.0008 67.0833 69.9996Z" fill="#211142"/>
</g>
</g>
<defs>
<clipPath id="clip0_496_4981">
<rect width="70" height="70" fill="white"/>
</clipPath>
</defs>
</svg>
