<svg width="33" height="32" viewBox="0 0 33 32" fill="none" xmlns="http://www.w3.org/2000/svg">
<path id="Vector" fill-rule="evenodd" clip-rule="evenodd" d="M16.2082 0.388184C20.6492 0.388184 24.5652 2.10765 27.4801 5.02022C30.2956 7.88501 32.015 11.8488 32.015 16.1957C32.015 20.5403 30.2963 24.5034 27.4801 27.3211C24.5652 30.1852 20.6492 32.0002 16.2082 32.0002C11.8637 32.0002 7.89983 30.1852 5.08284 27.3211C2.21574 24.5041 0.449219 20.5403 0.449219 16.1957C0.449219 11.8488 2.21574 7.88578 5.08284 5.02022C7.89906 2.10765 11.8637 0.388184 16.2082 0.388184ZM14.4418 9.55672L20.9382 16.0015C20.9382 16.0994 20.9382 16.195 20.9382 16.2898L14.4418 22.7831C14.3462 22.8787 14.2514 22.8787 14.1558 22.7831L12.7238 21.3997L17.8329 16.2898C17.8329 16.195 17.8329 16.0994 17.8329 16.0015L12.7238 10.9887L14.1558 9.55672C14.2506 9.46038 14.3462 9.46038 14.4418 9.55672Z" fill="#727270"/>
</svg>
