<svg width="32" height="32" viewBox="0 0 32 32" fill="none" xmlns="http://www.w3.org/2000/svg">
<path id="Vector" fill-rule="evenodd" clip-rule="evenodd" d="M15.9646 32C11.5237 32 7.60763 30.2805 4.69275 27.368C1.8773 24.5032 0.15783 20.5393 0.157831 16.1924C0.157831 11.8479 1.87653 7.8848 4.69276 5.06703C7.60764 2.20302 11.5237 0.387953 15.9646 0.387953C20.3092 0.387954 24.273 2.20302 27.09 5.06704C29.9571 7.88403 31.7236 11.8479 31.7236 16.1924C31.7236 20.5393 29.9571 24.5024 27.09 27.368C24.2738 30.2805 20.3092 32 15.9646 32ZM17.7311 22.8315L11.2347 16.3867C11.2347 16.2888 11.2347 16.1932 11.2347 16.0984L17.7311 9.60506C17.8267 9.50949 17.9215 9.50949 18.0171 9.60506L19.4491 10.9885L14.3399 16.0984C14.3399 16.1932 14.3399 16.2888 14.3399 16.3867L19.449 21.3995L18.0171 22.8315C17.9223 22.9278 17.8267 22.9278 17.7311 22.8315Z" fill="#727270"/>
</svg>
