<svg width="23" height="24" viewBox="0 0 23 24" fill="none" xmlns="http://www.w3.org/2000/svg">
<path d="M11.3625 23.2729C17.5558 23.2729 22.5765 18.2694 22.5765 12.0974C22.5765 5.92532 17.5558 0.921875 11.3625 0.921875C5.16914 0.921875 0.148438 5.92532 0.148438 12.0974C0.148438 18.2694 5.16914 23.2729 11.3625 23.2729Z" fill="url(#paint0_linear_34_272)"/>
<path d="M12.3126 11.3142L16.0303 7.00439H15.1503L11.922 10.7468L9.34324 7.00439H6.36914L10.2703 12.6601L6.36914 17.1763H7.24913L10.6609 13.2276L13.3856 17.1763H16.3597L12.3126 11.3142ZM11.1079 12.7117L10.7126 12.149L7.56913 7.66564H8.92442L11.4609 11.2814L11.8562 11.8441L15.155 16.5479H13.7997L11.1079 12.7117Z" fill="white"/>
<defs>
<linearGradient id="paint0_linear_34_272" x1="3.43317" y1="4.19532" x2="19.2386" y2="20.0553" gradientUnits="userSpaceOnUse">
<stop stop-color="#23004A"/>
<stop offset="0.9565" stop-color="#020003"/>
<stop offset="1"/>
</linearGradient>
</defs>
</svg>
