<svg width="22" height="22" viewBox="0 0 22 22" fill="none" xmlns="http://www.w3.org/2000/svg">
<g id="YouTube - Original" clip-path="url(#clip0_217_724)">
<path id="Vector" d="M20.8757 6.01676C20.7594 5.57912 20.5302 5.1797 20.211 4.85847C19.8918 4.53724 19.4939 4.30548 19.057 4.18637C17.4487 3.75391 11.0201 3.75391 11.0201 3.75391C11.0201 3.75391 4.59152 3.75391 2.98321 4.18637C2.54632 4.30548 2.14837 4.53724 1.82919 4.85847C1.51002 5.1797 1.28081 5.57912 1.1645 6.01676C0.734375 7.63209 0.734375 11.0007 0.734375 11.0007C0.734375 11.0007 0.734375 14.3692 1.1645 15.9846C1.28081 16.4222 1.51002 16.8216 1.82919 17.1428C2.14837 17.4641 2.54632 17.6958 2.98321 17.8149C4.59152 18.2474 11.0201 18.2474 11.0201 18.2474C11.0201 18.2474 17.4487 18.2474 19.057 17.8149C19.4939 17.6958 19.8918 17.4641 20.211 17.1428C20.5302 16.8216 20.7594 16.4222 20.8757 15.9846C21.3058 14.3692 21.3058 11.0007 21.3058 11.0007C21.3058 11.0007 21.3058 7.63209 20.8757 6.01676Z" fill="#FF0302"/>
<path id="Vector_2" d="M8.91602 14.0591V7.94141L14.2926 11.0002L8.91602 14.0591Z" fill="#FEFEFE"/>
</g>
<defs>
<clipPath id="clip0_217_724">
<rect width="20.5714" height="20.5714" fill="white" transform="translate(0.713867 0.714844)"/>
</clipPath>
</defs>
</svg>
