<svg width="23" height="24" viewBox="0 0 23 24" fill="none" xmlns="http://www.w3.org/2000/svg">
<path d="M11.2357 23.273C17.4292 23.273 22.45 18.269 22.45 12.0962C22.45 5.92346 17.4292 0.919434 11.2357 0.919434C5.04228 0.919434 0.0214844 5.92346 0.0214844 12.0962C0.0214844 18.269 5.04228 23.273 11.2357 23.273Z" fill="url(#paint0_linear_34_232)"/>
<path d="M14.3279 8.35791C13.9514 8.35791 13.6455 8.66277 13.6455 9.03799C13.6455 9.41321 13.9514 9.71807 14.3279 9.71807C14.7043 9.71807 15.0102 9.41321 15.0102 9.03799C15.0102 8.66277 14.7043 8.35791 14.3279 8.35791Z" fill="white"/>
<path d="M11.2826 9.22998C9.69665 9.22998 8.40723 10.5151 8.40723 12.0957C8.40723 13.6763 9.69665 14.9614 11.2826 14.9614C12.8685 14.9614 14.1579 13.6763 14.1579 12.0957C14.1579 10.5151 12.8685 9.22998 11.2826 9.22998ZM11.2826 13.9296C10.2661 13.9296 9.44253 13.1041 9.44253 12.0957C9.44253 11.0873 10.2708 10.2618 11.2826 10.2618C12.299 10.2618 13.1226 11.0873 13.1226 12.0957C13.1226 13.1041 12.299 13.9296 11.2826 13.9296Z" fill="white"/>
<path d="M13.5652 17.912H8.90632C6.97217 17.912 5.40039 16.3455 5.40039 14.4178V9.77449C5.40039 7.84681 6.97217 6.28027 8.90632 6.28027H13.5652C15.4993 6.28027 17.0711 7.84681 17.0711 9.77449V14.4178C17.0711 16.3455 15.4993 17.912 13.5652 17.912ZM8.90632 7.3731C7.57924 7.3731 6.49688 8.45185 6.49688 9.77449V14.4178C6.49688 15.7405 7.57924 16.8192 8.90632 16.8192H13.5652C14.8923 16.8192 15.9746 15.7405 15.9746 14.4178V9.77449C15.9746 8.45185 14.8923 7.3731 13.5652 7.3731H8.90632Z" fill="white"/>
<defs>
<linearGradient id="paint0_linear_34_232" x1="3.30604" y1="4.19326" x2="19.1133" y2="20.0535" gradientUnits="userSpaceOnUse">
<stop offset="0.0011048" stop-color="#FFE185"/>
<stop offset="0.2094" stop-color="#FFBB36"/>
<stop offset="0.3765" stop-color="#FF5176"/>
<stop offset="0.5238" stop-color="#F63395"/>
<stop offset="0.7394" stop-color="#A436D2"/>
<stop offset="1" stop-color="#5F4EED"/>
</linearGradient>
</defs>
</svg>
