<svg width="23" height="24" viewBox="0 0 23 24" fill="none" xmlns="http://www.w3.org/2000/svg">
<rect width="23" height="24" fill="#1E1E1E"/>
<rect width="1440" height="1461" transform="translate(-1272 -184)" fill="#FAFAFA"/>
<rect x="-0.770725" y="0.770725" width="55.1933" height="52.7662" rx="14.6438" transform="matrix(-1 0 0 1 48.0367 -14.4404)" stroke="#1E1141" stroke-width="1.54145"/>
<path d="M11.7768 23.3275C17.9702 23.3275 22.991 18.3235 22.991 12.1507C22.991 5.9779 17.9702 0.973877 11.7768 0.973877C5.5833 0.973877 0.5625 5.9779 0.5625 12.1507C0.5625 18.3235 5.5833 23.3275 11.7768 23.3275Z" fill="url(#paint0_linear_1_2)"/>
<path d="M14.8689 8.41211C14.4924 8.41211 14.1865 8.71697 14.1865 9.09219C14.1865 9.46741 14.4924 9.77227 14.8689 9.77227C15.2454 9.77227 15.5512 9.46741 15.5512 9.09219C15.5512 8.71697 15.2454 8.41211 14.8689 8.41211Z" fill="white"/>
<path d="M11.8236 9.28442C10.2377 9.28442 8.94824 10.5695 8.94824 12.1501C8.94824 13.7308 10.2377 15.0159 11.8236 15.0159C13.4095 15.0159 14.6989 13.7308 14.6989 12.1501C14.6989 10.5695 13.4095 9.28442 11.8236 9.28442ZM11.8236 13.984C10.8071 13.984 9.98355 13.1585 9.98355 12.1501C9.98355 11.1418 10.8118 10.3163 11.8236 10.3163C12.8401 10.3163 13.6636 11.1418 13.6636 12.1501C13.6636 13.1585 12.8401 13.984 11.8236 13.984Z" fill="white"/>
<path d="M14.1062 17.9662H9.44733C7.51319 17.9662 5.94141 16.3997 5.94141 14.472V9.82869C5.94141 7.90101 7.51319 6.33447 9.44733 6.33447H14.1062C16.0404 6.33447 17.6121 7.90101 17.6121 9.82869V14.472C17.6121 16.3997 16.0404 17.9662 14.1062 17.9662ZM9.44733 7.42729C8.12026 7.42729 7.03789 8.50604 7.03789 9.82869V14.472C7.03789 15.7947 8.12026 16.8734 9.44733 16.8734H14.1062C15.4333 16.8734 16.5157 15.7947 16.5157 14.472V9.82869C16.5157 8.50604 15.4333 7.42729 14.1062 7.42729H9.44733Z" fill="white"/>
<defs>
<linearGradient id="paint0_linear_1_2" x1="3.84706" y1="4.2477" x2="19.6543" y2="20.108" gradientUnits="userSpaceOnUse">
<stop offset="0.0011048" stop-color="#FFE185"/>
<stop offset="0.2094" stop-color="#FFBB36"/>
<stop offset="0.3765" stop-color="#FF5176"/>
<stop offset="0.5238" stop-color="#F63395"/>
<stop offset="0.7394" stop-color="#A436D2"/>
<stop offset="1" stop-color="#5F4EED"/>
</linearGradient>
</defs>
</svg>
