<svg width="24" height="24" viewBox="0 0 24 24" fill="none" xmlns="http://www.w3.org/2000/svg">
<path d="M11.8406 23.2729C18.0126 23.2729 23.0161 18.2694 23.0161 12.0974C23.0161 5.92532 18.0126 0.921875 11.8406 0.921875C5.66849 0.921875 0.665039 5.92532 0.665039 12.0974C0.665039 18.2694 5.66849 23.2729 11.8406 23.2729Z" fill="url(#paint0_linear_34_226)"/>
<path fill-rule="evenodd" clip-rule="evenodd" d="M14.1812 10.3528C14.9925 10.9343 15.9867 11.2719 17.0606 11.2719V9.20378C16.859 9.20378 16.6526 9.18503 16.4557 9.14282V10.7701C15.3817 10.7701 14.3875 10.4278 13.5762 9.85096V14.067C13.5762 16.1773 11.8645 17.8844 9.75411 17.8844C8.96625 17.8844 8.23466 17.6452 7.625 17.2372C8.31907 17.9454 9.28515 18.3862 10.3544 18.3862C12.4648 18.3862 14.1765 16.6744 14.1765 14.5688L14.1812 10.3528ZM14.9268 8.26585C14.5141 7.81095 14.2374 7.22943 14.1812 6.58225V6.31494H13.609C13.7544 7.14033 14.2468 7.84378 14.9268 8.26585ZM8.96625 15.6193C8.73645 15.3144 8.60984 14.944 8.60984 14.5594C8.60984 13.5933 9.39301 12.8148 10.3591 12.8148C10.5373 12.8148 10.7155 12.843 10.889 12.8946V10.7842C10.6874 10.7561 10.4857 10.7467 10.284 10.7514V12.3975C10.1105 12.3412 9.93232 12.3177 9.75411 12.3177C8.78804 12.3177 8.00486 13.1009 8.00486 14.0623C8.00486 14.7423 8.39411 15.3332 8.96625 15.6193Z" fill="#FF1753"/>
<path fill-rule="evenodd" clip-rule="evenodd" d="M13.5753 9.85096C14.3867 10.4325 15.3809 10.7701 16.4548 10.7701V9.14282C15.8545 9.0162 15.3246 8.70199 14.926 8.26585C14.2413 7.83909 13.7489 7.13564 13.6082 6.31494H12.1028V14.5688C12.0981 15.5302 11.3196 16.3087 10.3535 16.3087C9.78608 16.3087 9.2796 16.0367 8.9607 15.6193C8.38856 15.3332 7.99931 14.7423 7.99931 14.0576C7.99931 13.0915 8.78249 12.313 9.74856 12.313C9.93146 12.313 10.1097 12.3412 10.2785 12.3928V10.7467C8.20566 10.7889 6.53613 12.4819 6.53613 14.5641C6.53613 15.6052 6.95351 16.5478 7.62414 17.2325C8.23379 17.6405 8.96538 17.8797 9.75325 17.8797C11.8636 17.8797 13.5753 16.168 13.5753 14.0623V9.85096Z" fill="white"/>
<path fill-rule="evenodd" clip-rule="evenodd" d="M16.4553 9.14296V8.70213C15.916 8.70213 15.386 8.55206 14.9265 8.26599C15.3345 8.71151 15.8691 9.01634 16.4553 9.14296ZM13.6086 6.31508C13.5946 6.23535 13.5852 6.15563 13.5758 6.07591V5.80859H11.4983V14.0624C11.4936 15.0238 10.7151 15.8023 9.74904 15.8023C9.46766 15.8023 9.20035 15.7366 8.96118 15.6147C9.28008 16.0321 9.78656 16.3041 10.354 16.3041C11.3154 16.3041 12.0986 15.5256 12.1033 14.5642V6.31508H13.6086ZM10.279 10.7515V10.2825C10.1055 10.2591 9.93194 10.245 9.75373 10.245C7.64337 10.245 5.93164 11.9568 5.93164 14.0624C5.93164 15.3849 6.60227 16.548 7.62462 17.2373C6.9493 16.548 6.53661 15.6053 6.53661 14.5689C6.5413 12.4867 8.20614 10.7937 10.279 10.7515Z" fill="#00C9D0"/>
<defs>
<linearGradient id="paint0_linear_34_226" x1="3.93801" y1="4.19532" x2="19.7436" y2="20.0009" gradientUnits="userSpaceOnUse">
<stop stop-color="#23004A"/>
<stop offset="0.9565" stop-color="#020003"/>
<stop offset="1"/>
</linearGradient>
</defs>
</svg>
